<svg xmlns:cc="http://web.resource.org/cc/" xmlns:dc="http://purl.org/dc/elements/1.1/" xmlns:inkscape="http://www.inkscape.org/namespaces/inkscape" xmlns:ns1="http://sozi.baierouge.fr" xmlns:rdf="http://www.w3.org/1999/02/22-rdf-syntax-ns#" xmlns:sodipodi="http://sodipodi.sourceforge.net/DTD/sodipodi-0.dtd" xmlns:svg="http://www.w3.org/2000/svg" xmlns="http://www.w3.org/2000/svg" xmlns:xlink="http://www.w3.org/1999/xlink" id="Layer_1" x="0px" y="0px" viewBox="0 0 229.7 120.4" style="enable-background:new 0 0 229.7 120.4;" xml:space="preserve">
<style type="text/css">
	.st0{fill:#FFFFFF;}
</style>
<g>
	<path class="st0" d="M205.4,0.5c-3.3,0.4-15.5,3.8-17.7,5.2c-7.3,4.8-7.2,16.4-1,20.1c-3.7,5.4-10.7,8.3-17.1,7.3   c2.9-5.3,3.2-11.5,0.7-16.4c7.2-3.6,2.5-13.7-2.2-15.6c-9.2-3.7-20.2,2.8-25.6,2.6c-2.8-0.1-7.3-4.8-8.5-2   c3.6,11.9,17.6,27,30.8,17.1l0.2-0.2c2.5,4.1,1.5,9.3-0.7,12.7l-0.1-0.1c-2.9,3-7.9,3.9-11.8,5.9c0.6-8.2-2.4-12.9-7.2-15.7   c-1.4,3.6-5.1,5-6.6,8.5c5.5,1.1,7.9,5.3,7.3,12.6c-3.3,7.2-3.7,15.4-4.1,23.3c-0.7,13.5-1.3,25.2-15.3,30.4   c-7.6,0.2-13.8,2.1-22,0.6l-0.1,0.2c-9.2-4.4-11.5-14.7-12.1-19.3h0.4c0.5-5.3-0.8-16.6,0.7-23l-0.2,0c0.5-0.5,1.1-1.1,1.6-1.6   c1.5-1.5,2.9-3,4.5-4v0.4c2-0.5,2.4,0.7,3.9,0.7l0.1-0.4c1.3,0.9,1.6,2.1,1.6,2.8c0,1.5-0.9,3-2.3,3.7c-1.2,0.6-1.7,2-1.1,3.2   s2,1.7,3.2,1.1c3-1.5,5-4.7,4.9-8.1c0-2.6-1.2-4.9-3.2-6.4v-1.5c3.5-1,7.1-1.1,10.6-0.6l-0.1,0.2c0.8,0.9,2.3,1.2,3.9,1.3l0.3-0.7   c6.6,4.7,6.7,12.4,3.7,18.6l-0.1-0.2c-2.2-8.6-8-10.8-13.1-5.9c-6.8,6.6,1.5,20.7-8.5,21.6c-3.4,0.3-2.6-3-6.6-1.3   c0.4,7.5,6.1,9.6,12.5,11.1c-10.3,0.6-0.3,13,2.6,3.9c0.7-2.1-0.7-1.6-0.7-4.6c14.4,2.7,38.4-20.2,18.4-22.3l-0.3,0   c4.5-8.8,3-18.1-3.6-23.9v-0.4l-0.3,0c3.6-4.5,5.7-10.5,2.8-15.8l0.1,0c2.9,0.1,7.8-0.8,8.5-3.3c3.3-11.7-17.4-18.9-25.6-21   c-5.5-1.4-11.2-1.6-11.8,0c-1.1,2.9,4.7,5.6,5.2,7.2c1.8,5.5-2.3,14.5,0.7,19.7c4.2,7.4,14.2,4.5,19,0c1.7,3.8-0.7,7.9-2.6,10.3   l0-0.5h-2.6V39c-4.9-1-10-0.7-14.8,0.8c-0.3,0.1-0.5,0.2-0.7,0.4c-2.9,0.7-4.9,2.5-6.7,4.3l0.4,0.3c-2.4,1.4-4.2,3.3-5.9,5.1   c-0.6,0.6-1.1,1.1-1.7,1.7l0-0.5c-2-3.3-2.7-7.9-4.5-11.5c0-0.1,0-0.1,0-0.2c-0.3-4.2,0.4-6.8,2.5-8.4c0.3-0.3,0.6-0.6,0.8-0.9   c7.5-0.5,2.1,6.7,3.2,9.2c19.8-2.4,3.1-26.2-7.6-13.4c-0.1,0-0.1,0.1-0.2,0.1c-3.5,2.8-5.2,6.9-5,12.5c-5.4-1.7-8.9-5.3-12.8-8.4   l-0.3,0.4c-1.4-1.7-2.1-4.3,1.4-9.7l0.2,0.2c2,2.1,3.9,4.4,6.6,5.9c-10,5.9,9.8,9,2-1.3C87.4,24.8,86.4,13.4,92,5.7   c1.6-2.2,5.2-1.4,3.9-5.2c-9.2,4-34.8-0.6-38.7,6.6c-2.6,4.9,1,9.2,4.3,11.6c-3.3,5.5-3.7,10.3-1.1,14.2c-0.2,0.7-1.6,0.3-1.9,1   c-6.8,0.5-13.5-2.5-17.1-7.7v-0.7c5.9,2.9,9-3.6,9.2-6.6c0.7-11.5-21-17.6-35.4-17.7C9.5,1.1-1.4,2.2,0.2,7.7c1,3.6,4.1,0.3,8.5,2   c6.8,2.6,12,30.6,24.9,24.3c1.3-0.7,2.1-4.2,3.7-4.6c5,7,14,10.8,23.2,9.6l0,0.3c1.3,1.9,7.2-0.6,8.5,1.3c-4.1,2.1-3.9,4.9-7.2,5.2   c-2.1,0.2-3.3-2.3-5.9-1.3c-4.5,1.7-5,8.9-4.6,12.5c1,8.2,14.2,21.1,21,22.3c4.1,0.7,9.4-2,9.2-4.6c-0.3-3.7-6.4-1.4-7.9-3.9   c-2.5-4.4,8-10.9,5.2-18.4c-1.2-3.2-4.5-2.3-5.9-6.6c14.1,1,12.5,17.7,13.6,31.8c0,0.2,0,0.5,0,0.7c0.1,0.5,0.1,1,0.2,1.5   c0,0.1,0,0.1,0,0.2l0,0c1.5,10,6.5,17.8,13.9,21.8c4.1,5.3,10.3,2.5,12.3,8.3c0.6,1.7-1.4,4.4-0.7,6.6c2.4,6.4,11,3.9,12.5-0.7   c0.7-2.2-1.7-4.6-1.3-7.2c0.5-3.7,2.4-4.2,5.2-6.1c18.3-6.6,19.1-22.5,19.8-36.4c0.4-7.4,0.8-15,3.6-21c0,0,0,0,0,0   c3.5-3.1,11-4.2,10.7,3.2c-6.2-3.3-11.9,2.2-11.8,7.9c0.1,5.9,6.9,7.9,7.2,11.8c0.3,4.5-5.7,6.5-5.2,9.2c0.9,5.8,8.5-0.3,13.1-2.6   c0.9-0.4,2.7-0.3,3.3-0.7c8.8-6.2,19-37.1-0.7-28.2c0.3-3-3.9-4.8-2.6-6.6l-0.1-1c9.6,2.7,20.3-1.3,25.7-9.6c2.7-0.2,2.8,3.3,5.2,4   C213.4,37.7,213.4,13,221.8,9c2.1-1,7.9,0.8,7.9-3.9C229.6,0.2,213.3-0.5,205.4,0.5L205.4,0.5z"></path>
	<path class="st0" d="M95.2,19.5c4.5,0,5.7-10.3-0.7-8.5C89.1,12.5,91.6,19.5,95.2,19.5z"></path>
	<path class="st0" d="M182.5,28c2-3.7-3.9-6.7-5.9-5.2C171.2,26.7,180.3,32.2,182.5,28L182.5,28z"></path>
	<path class="st0" d="M56.6,26.7c0-2.8-3.3-4.1-5.2-3.3C42.9,27,56.6,35.7,56.6,26.7z"></path>
	<path class="st0" d="M161.5,29.3c1.4-3.3-1.6-4.1-2.6-3.9C151.6,26.3,159.1,35.1,161.5,29.3L161.5,29.3z"></path>
	<path class="st0" d="M141.8,41.8c-0.3-3.5-3.6-5.1-6.6-3.9C124,42.4,142.8,54.2,141.8,41.8L141.8,41.8z"></path>
	<path class="st0" d="M185.1,39.8c-2.2,1.4-3.4,6.4-0.7,8.5C191.5,53.9,195.2,33.4,185.1,39.8L185.1,39.8z"></path>
	<path class="st0" d="M42.1,41.2c-6.2,2.7-1.5,11.3,3.9,9.8C50.9,49.7,50.5,37.5,42.1,41.2z"></path>
	<path class="st0" d="M104.4,70.7c2.1-5.3-3.7-7.3-5.9-6.6C89.3,67.3,101.4,78.3,104.4,70.7z"></path>
	<path class="st0" d="M124.1,93.6c4.5,1.6,7.2-7,2.6-7.2C122,86.1,120.7,92.4,124.1,93.6L124.1,93.6z"></path>
</g>
</svg>